<svg width="960" height="238" viewBox="0 0 960 238" fill="none" xmlns="http://www.w3.org/2000/svg">
<g clip-path="url(#clip0_463_930)">
<mask id="path-1-inside-1_463_930" fill="white">
<path d="M0 0H960V238H0V0Z"/>
</mask>
<path d="M0 0H960V238H0V0Z" fill="white"/>
<path d="M91.293 107H84.7646C83.3177 104.733 82.0075 102.773 80.834 101.121C79.6719 99.4691 78.4072 97.7658 77.04 96.0112H74.562V103.702C74.562 104.1 74.6247 104.454 74.75 104.761C74.8753 105.057 75.1431 105.285 75.5532 105.445C75.7583 105.525 76.1172 105.599 76.6299 105.667C77.1426 105.735 77.5755 105.775 77.9287 105.787V107H67.6748V105.787C67.9482 105.764 68.3413 105.724 68.854 105.667C69.3781 105.61 69.7427 105.536 69.9478 105.445C70.2896 105.297 70.5345 105.08 70.6826 104.795C70.8421 104.511 70.9219 104.146 70.9219 103.702V86.1675C70.9219 85.7687 70.8649 85.4155 70.751 85.1079C70.637 84.8003 70.3693 84.5667 69.9478 84.4072C69.6629 84.3047 69.2926 84.2135 68.8369 84.1338C68.3812 84.0426 67.9938 83.9857 67.6748 83.9629V82.7495H78.8687C79.894 82.7495 80.8568 82.8577 81.7568 83.0742C82.6569 83.2793 83.4715 83.6154 84.2007 84.0825C84.9071 84.5382 85.471 85.1364 85.8926 85.877C86.3141 86.6061 86.5249 87.4891 86.5249 88.5259C86.5249 89.4601 86.3825 90.2861 86.0977 91.0039C85.8128 91.7217 85.3913 92.3426 84.833 92.8667C84.3203 93.3566 83.7051 93.7839 82.9873 94.1484C82.2695 94.5016 81.4777 94.8035 80.6118 95.0542C81.8081 96.6379 82.7993 97.9709 83.5854 99.0532C84.383 100.136 85.3571 101.451 86.5078 103.001C87.0091 103.685 87.4591 104.192 87.8579 104.522C88.2681 104.841 88.6725 105.103 89.0713 105.308C89.3675 105.456 89.7378 105.57 90.1821 105.65C90.6265 105.73 90.9967 105.775 91.293 105.787V107ZM82.3037 88.9189C82.3037 87.4492 81.8822 86.2871 81.0391 85.4326C80.196 84.5667 79.0054 84.1338 77.4673 84.1338H74.562V94.5415H76.8008C78.373 94.5415 79.6833 94.0402 80.7314 93.0376C81.7796 92.0236 82.3037 90.6507 82.3037 88.9189ZM107.768 106.692C107.232 106.886 106.759 107.04 106.349 107.154C105.95 107.279 105.495 107.342 104.982 107.342C104.093 107.342 103.381 107.137 102.846 106.727C102.322 106.305 101.986 105.695 101.837 104.898H101.735C100.994 105.718 100.197 106.345 99.3423 106.778C98.4992 107.211 97.4795 107.427 96.2832 107.427C95.0186 107.427 93.9761 107.04 93.1558 106.265C92.3468 105.49 91.9424 104.476 91.9424 103.223C91.9424 102.574 92.0335 101.993 92.2158 101.48C92.3981 100.967 92.6715 100.506 93.0361 100.096C93.321 99.7539 93.6969 99.452 94.1641 99.1899C94.6312 98.9165 95.0698 98.7 95.48 98.5405C95.9927 98.3468 97.0295 97.988 98.5903 97.4639C100.163 96.9398 101.222 96.5296 101.769 96.2334V94.5415C101.769 94.3934 101.735 94.1086 101.667 93.687C101.61 93.2655 101.479 92.8667 101.273 92.4907C101.046 92.0692 100.721 91.7046 100.299 91.397C99.8892 91.078 99.3024 90.9185 98.5391 90.9185C98.015 90.9185 97.5251 91.0096 97.0693 91.1919C96.625 91.3628 96.3117 91.5451 96.1294 91.7388C96.1294 91.9666 96.1807 92.3027 96.2832 92.7471C96.3971 93.1914 96.4541 93.6016 96.4541 93.9775C96.4541 94.3763 96.2718 94.7409 95.9072 95.0713C95.554 95.4017 95.0584 95.5669 94.4204 95.5669C93.8507 95.5669 93.4292 95.3675 93.1558 94.9688C92.8937 94.5586 92.7627 94.1029 92.7627 93.6016C92.7627 93.0775 92.945 92.5762 93.3096 92.0977C93.6855 91.6191 94.1698 91.1919 94.7622 90.8159C95.2749 90.4969 95.8958 90.2292 96.625 90.0127C97.3542 89.7848 98.0662 89.6709 98.7612 89.6709C99.7183 89.6709 100.55 89.7393 101.256 89.876C101.974 90.0013 102.624 90.2804 103.205 90.7134C103.786 91.1349 104.224 91.7103 104.521 92.4395C104.828 93.1572 104.982 94.0858 104.982 95.2251C104.982 96.8543 104.965 98.3013 104.931 99.5659C104.896 100.819 104.879 102.192 104.879 103.685C104.879 104.129 104.953 104.482 105.102 104.744C105.261 105.006 105.5 105.228 105.819 105.411C105.99 105.513 106.258 105.57 106.623 105.582C106.999 105.593 107.38 105.599 107.768 105.599V106.692ZM101.803 97.6689C100.835 97.9538 99.986 98.2329 99.2568 98.5063C98.5277 98.7798 97.8498 99.1216 97.2231 99.5317C96.6535 99.9191 96.2035 100.381 95.873 100.916C95.5426 101.44 95.3774 102.067 95.3774 102.796C95.3774 103.742 95.6224 104.437 96.1123 104.881C96.6136 105.325 97.2459 105.547 98.0093 105.547C98.8182 105.547 99.5303 105.354 100.146 104.966C100.761 104.568 101.279 104.1 101.701 103.565L101.803 97.6689ZM124.84 92.1489C125.513 92.9465 126.031 93.875 126.396 94.9346C126.771 95.9827 126.959 97.1847 126.959 98.5405C126.959 99.8735 126.737 101.093 126.293 102.198C125.849 103.292 125.262 104.226 124.533 105C123.769 105.787 122.921 106.39 121.986 106.812C121.052 107.234 120.061 107.444 119.013 107.444C117.999 107.444 117.167 107.33 116.518 107.103C115.868 106.875 115.338 106.607 114.928 106.299H114.792V111.358C114.792 111.768 114.871 112.11 115.031 112.383C115.19 112.657 115.435 112.856 115.766 112.981C116.039 113.084 116.426 113.181 116.928 113.272C117.44 113.375 117.862 113.431 118.192 113.443V114.588H108.776V113.443C109.129 113.42 109.471 113.392 109.801 113.357C110.132 113.323 110.428 113.266 110.69 113.187C111.032 113.073 111.271 112.873 111.408 112.588C111.544 112.304 111.613 111.967 111.613 111.58V93.6528C111.613 93.311 111.527 92.9806 111.356 92.6616C111.186 92.3426 110.963 92.0863 110.69 91.8926C110.485 91.7559 110.2 91.6533 109.835 91.585C109.471 91.5052 109.118 91.4539 108.776 91.4312V90.3203L114.518 89.9443L114.757 90.1494V92.0464L114.894 92.0806C115.486 91.397 116.221 90.8273 117.099 90.3716C117.976 89.9159 118.847 89.688 119.713 89.688C120.762 89.688 121.719 89.9102 122.584 90.3545C123.462 90.7988 124.214 91.397 124.84 92.1489ZM122.055 104.266C122.51 103.559 122.847 102.739 123.063 101.805C123.279 100.87 123.388 99.828 123.388 98.6772C123.388 97.8341 123.297 96.974 123.114 96.0967C122.932 95.2194 122.647 94.4561 122.26 93.8066C121.872 93.1458 121.365 92.6104 120.739 92.2002C120.112 91.79 119.36 91.585 118.483 91.585C117.64 91.585 116.922 91.7729 116.33 92.1489C115.737 92.5135 115.224 92.9521 114.792 93.4648V103.428C114.894 103.736 115.059 104.055 115.287 104.385C115.526 104.716 115.788 105 116.073 105.24C116.426 105.525 116.808 105.758 117.218 105.94C117.628 106.111 118.13 106.197 118.722 106.197C119.36 106.197 119.975 106.032 120.568 105.701C121.16 105.359 121.656 104.881 122.055 104.266ZM137.624 107H129.472V105.872C129.734 105.849 130.001 105.826 130.275 105.804C130.56 105.781 130.805 105.735 131.01 105.667C131.329 105.564 131.562 105.388 131.71 105.137C131.87 104.875 131.95 104.539 131.95 104.129V93.7212C131.95 93.3566 131.864 93.0262 131.693 92.73C131.534 92.4224 131.306 92.166 131.01 91.9609C130.793 91.8242 130.48 91.7103 130.07 91.6191C129.66 91.5166 129.284 91.4539 128.942 91.4312V90.3203L134.889 89.9443L135.128 90.1836V103.924C135.128 104.323 135.202 104.653 135.351 104.915C135.51 105.177 135.755 105.371 136.085 105.496C136.336 105.599 136.581 105.684 136.82 105.752C137.06 105.809 137.327 105.849 137.624 105.872V107ZM135.47 83.2964C135.47 83.9458 135.254 84.5155 134.821 85.0054C134.399 85.4839 133.875 85.7231 133.249 85.7231C132.667 85.7231 132.16 85.4953 131.728 85.0396C131.306 84.5724 131.095 84.0426 131.095 83.4502C131.095 82.8236 131.306 82.2767 131.728 81.8096C132.16 81.3424 132.667 81.1089 133.249 81.1089C133.898 81.1089 134.428 81.3311 134.838 81.7754C135.259 82.2083 135.47 82.7153 135.47 83.2964ZM158.148 106.692L152.27 107.068L152.013 106.829V105.257L151.876 105.223C151.284 105.883 150.549 106.425 149.672 106.846C148.806 107.268 147.912 107.479 146.989 107.479C146.032 107.479 145.103 107.268 144.203 106.846C143.314 106.413 142.54 105.809 141.879 105.035C141.207 104.249 140.671 103.303 140.272 102.198C139.885 101.093 139.691 99.8735 139.691 98.5405C139.691 97.3215 139.902 96.165 140.324 95.0713C140.745 93.9775 141.326 93.0205 142.067 92.2002C142.762 91.4368 143.611 90.8273 144.613 90.3716C145.627 89.9159 146.658 89.688 147.707 89.688C148.493 89.688 149.262 89.7905 150.014 89.9956C150.777 90.1893 151.432 90.4399 151.979 90.7476V84.8857C151.979 84.4072 151.899 83.9743 151.74 83.5869C151.58 83.1882 151.358 82.8862 151.073 82.6812C150.754 82.4647 150.321 82.3109 149.774 82.2197C149.239 82.1172 148.658 82.0431 148.031 81.9976V80.938L154.918 80.5449L155.175 80.8013V103.531C155.175 103.93 155.249 104.271 155.397 104.556C155.556 104.83 155.784 105.063 156.081 105.257C156.297 105.394 156.61 105.479 157.021 105.513C157.431 105.547 157.807 105.57 158.148 105.582V106.692ZM151.979 103.736V93.875C151.888 93.5788 151.74 93.2598 151.535 92.918C151.33 92.5762 151.073 92.2629 150.766 91.978C150.435 91.6932 150.048 91.4596 149.604 91.2773C149.159 91.0837 148.641 90.9868 148.048 90.9868C147.365 90.9868 146.732 91.1634 146.151 91.5166C145.582 91.8698 145.075 92.3768 144.63 93.0376C144.209 93.6756 143.873 94.4902 143.622 95.4814C143.383 96.4613 143.263 97.5493 143.263 98.7456C143.263 99.7026 143.354 100.574 143.537 101.36C143.719 102.135 144.027 102.859 144.459 103.531C144.858 104.169 145.365 104.681 145.98 105.069C146.607 105.456 147.348 105.65 148.202 105.65C149.114 105.65 149.866 105.451 150.458 105.052C151.062 104.653 151.569 104.214 151.979 103.736Z" fill="#171717"/>
<path d="M90.8999 136.02C90.8999 138.082 90.5125 139.871 89.7378 141.386C88.9631 142.902 87.9548 144.143 86.7129 145.112C85.4596 146.08 84.0526 146.804 82.4917 147.282C80.9308 147.761 79.3187 148 77.6553 148H67.6064V146.787C67.9368 146.787 68.3641 146.758 68.8882 146.701C69.4237 146.633 69.7769 146.559 69.9478 146.479C70.2896 146.331 70.5345 146.114 70.6826 145.83C70.8421 145.533 70.9219 145.18 70.9219 144.77V127.27C70.9219 126.883 70.8535 126.535 70.7168 126.228C70.5915 125.92 70.3351 125.675 69.9478 125.493C69.5946 125.322 69.2129 125.196 68.8027 125.117C68.3926 125.037 68.0394 124.986 67.7432 124.963V123.75H78.3389C79.7972 123.75 81.2327 123.977 82.6455 124.433C84.0583 124.877 85.2887 125.481 86.3369 126.245C87.7611 127.259 88.8776 128.586 89.6865 130.227C90.4954 131.867 90.8999 133.798 90.8999 136.02ZM86.7129 136.003C86.7129 134.374 86.4964 132.904 86.0635 131.594C85.6305 130.272 84.9982 129.121 84.1665 128.142C83.3804 127.207 82.4119 126.472 81.2612 125.937C80.1219 125.402 78.8516 125.134 77.4502 125.134C76.9831 125.134 76.4533 125.145 75.8608 125.168C75.2798 125.179 74.8468 125.191 74.562 125.202V143.847C74.562 144.884 74.8639 145.602 75.4678 146C76.0716 146.399 77.0002 146.599 78.2534 146.599C79.7004 146.599 80.965 146.342 82.0474 145.83C83.1297 145.317 84.007 144.605 84.6792 143.693C85.3856 142.736 85.8983 141.631 86.2173 140.378C86.5477 139.113 86.7129 137.655 86.7129 136.003ZM108.417 144.035C107.711 145.38 106.765 146.451 105.58 147.248C104.395 148.046 103.034 148.444 101.496 148.444C100.14 148.444 98.9492 148.205 97.9238 147.727C96.9098 147.248 96.0724 146.599 95.4116 145.778C94.7508 144.958 94.2552 144.001 93.9248 142.907C93.6058 141.813 93.4463 140.657 93.4463 139.438C93.4463 138.344 93.6172 137.273 93.959 136.225C94.3122 135.166 94.8249 134.214 95.4971 133.371C96.1465 132.562 96.9497 131.913 97.9067 131.423C98.8752 130.922 99.9575 130.671 101.154 130.671C102.384 130.671 103.438 130.865 104.315 131.252C105.193 131.639 105.905 132.169 106.452 132.841C106.976 133.479 107.363 134.231 107.614 135.097C107.876 135.963 108.007 136.903 108.007 137.917V139.045H96.8472C96.8472 140.15 96.9497 141.153 97.1548 142.053C97.3713 142.953 97.7074 143.745 98.1631 144.428C98.6074 145.089 99.1885 145.613 99.9062 146C100.624 146.376 101.479 146.564 102.47 146.564C103.484 146.564 104.355 146.331 105.084 145.864C105.825 145.385 106.537 144.531 107.221 143.3L108.417 144.035ZM104.64 137.609C104.64 136.971 104.583 136.288 104.469 135.559C104.367 134.829 104.196 134.22 103.957 133.73C103.694 133.206 103.336 132.779 102.88 132.448C102.424 132.118 101.837 131.953 101.12 131.953C99.9233 131.953 98.9264 132.454 98.1289 133.457C97.3428 134.448 96.9155 135.832 96.8472 137.609H104.64ZM121.491 139.746C121.958 140.156 122.317 140.629 122.567 141.164C122.818 141.7 122.943 142.355 122.943 143.129C122.943 144.69 122.357 145.966 121.183 146.958C120.021 147.949 118.511 148.444 116.654 148.444C115.674 148.444 114.769 148.268 113.937 147.915C113.117 147.561 112.53 147.237 112.177 146.94L111.835 148.051H110.553L110.382 142.189H111.562C111.653 142.634 111.846 143.152 112.143 143.745C112.439 144.337 112.798 144.873 113.219 145.351C113.664 145.852 114.193 146.274 114.809 146.616C115.435 146.958 116.136 147.128 116.911 147.128C118.004 147.128 118.847 146.883 119.44 146.394C120.032 145.892 120.329 145.18 120.329 144.257C120.329 143.779 120.232 143.369 120.038 143.027C119.856 142.674 119.582 142.366 119.218 142.104C118.842 141.842 118.38 141.608 117.833 141.403C117.287 141.187 116.677 140.976 116.005 140.771C115.469 140.611 114.871 140.395 114.21 140.122C113.561 139.837 113.003 139.506 112.536 139.13C112.034 138.732 111.624 138.242 111.305 137.661C110.986 137.08 110.827 136.396 110.827 135.61C110.827 134.231 111.339 133.063 112.365 132.106C113.39 131.149 114.763 130.671 116.483 130.671C117.144 130.671 117.816 130.756 118.5 130.927C119.195 131.098 119.759 131.303 120.192 131.542L120.585 130.654H121.815L122.072 136.071H120.893C120.653 134.864 120.135 133.884 119.337 133.132C118.551 132.368 117.589 131.987 116.449 131.987C115.515 131.987 114.78 132.22 114.245 132.688C113.709 133.155 113.441 133.719 113.441 134.379C113.441 134.892 113.527 135.319 113.698 135.661C113.88 136.003 114.148 136.293 114.501 136.533C114.843 136.761 115.27 136.977 115.783 137.182C116.307 137.376 116.951 137.598 117.714 137.849C118.466 138.088 119.172 138.367 119.833 138.686C120.505 139.005 121.058 139.358 121.491 139.746ZM133.693 148H125.541V146.872C125.803 146.849 126.071 146.826 126.344 146.804C126.629 146.781 126.874 146.735 127.079 146.667C127.398 146.564 127.632 146.388 127.78 146.137C127.939 145.875 128.019 145.539 128.019 145.129V134.721C128.019 134.357 127.934 134.026 127.763 133.73C127.603 133.422 127.375 133.166 127.079 132.961C126.863 132.824 126.549 132.71 126.139 132.619C125.729 132.517 125.353 132.454 125.011 132.431V131.32L130.958 130.944L131.198 131.184V144.924C131.198 145.323 131.272 145.653 131.42 145.915C131.579 146.177 131.824 146.371 132.155 146.496C132.405 146.599 132.65 146.684 132.89 146.752C133.129 146.809 133.397 146.849 133.693 146.872V148ZM131.54 124.296C131.54 124.946 131.323 125.515 130.89 126.005C130.469 126.484 129.944 126.723 129.318 126.723C128.737 126.723 128.23 126.495 127.797 126.04C127.375 125.572 127.165 125.043 127.165 124.45C127.165 123.824 127.375 123.277 127.797 122.81C128.23 122.342 128.737 122.109 129.318 122.109C129.967 122.109 130.497 122.331 130.907 122.775C131.329 123.208 131.54 123.715 131.54 124.296ZM150.202 146.257C150.657 146.69 151.016 147.18 151.278 147.727C151.54 148.273 151.671 148.951 151.671 149.76C151.671 150.569 151.495 151.327 151.142 152.033C150.788 152.751 150.253 153.372 149.535 153.896C148.772 154.431 147.86 154.847 146.801 155.144C145.741 155.44 144.431 155.588 142.87 155.588C140.318 155.588 138.41 155.212 137.145 154.46C135.88 153.719 135.248 152.631 135.248 151.196C135.248 150.034 135.704 149.117 136.615 148.444C137.527 147.772 138.689 147.408 140.102 147.351V147.111C139.76 147.009 139.407 146.883 139.042 146.735C138.677 146.576 138.364 146.394 138.102 146.188C137.806 145.949 137.567 145.67 137.384 145.351C137.202 145.021 137.111 144.616 137.111 144.138C137.111 143.534 137.322 142.981 137.743 142.48C138.176 141.967 138.826 141.529 139.691 141.164V140.908C138.598 140.395 137.749 139.74 137.145 138.942C136.541 138.133 136.239 137.199 136.239 136.14C136.239 134.545 136.832 133.234 138.017 132.209C139.213 131.184 140.74 130.671 142.597 130.671C143.109 130.671 143.616 130.722 144.118 130.825C144.63 130.927 145.149 131.058 145.673 131.218H151.552V132.858H147.587V132.961C148.008 133.451 148.322 133.992 148.527 134.584C148.732 135.177 148.834 135.758 148.834 136.328C148.834 137.809 148.231 139.062 147.023 140.087C145.827 141.113 144.431 141.625 142.836 141.625H140.768C140.506 141.717 140.233 141.882 139.948 142.121C139.663 142.36 139.521 142.685 139.521 143.095C139.521 143.517 139.64 143.841 139.879 144.069C140.119 144.286 140.409 144.434 140.751 144.514C141.081 144.605 141.463 144.662 141.896 144.685C142.34 144.707 142.796 144.724 143.263 144.736C143.764 144.747 144.448 144.781 145.314 144.838C146.191 144.895 146.812 144.93 147.177 144.941C147.701 144.964 148.225 145.089 148.749 145.317C149.285 145.545 149.769 145.858 150.202 146.257ZM145.587 136.259C145.587 134.926 145.314 133.867 144.767 133.081C144.232 132.283 143.474 131.884 142.494 131.884C141.959 131.884 141.497 131.998 141.11 132.226C140.734 132.443 140.426 132.756 140.187 133.166C139.959 133.542 139.794 133.998 139.691 134.533C139.6 135.057 139.555 135.598 139.555 136.157C139.555 137.421 139.828 138.452 140.375 139.25C140.933 140.048 141.651 140.446 142.528 140.446C143.508 140.446 144.26 140.053 144.784 139.267C145.32 138.47 145.587 137.467 145.587 136.259ZM148.869 150.393C148.869 149.755 148.721 149.23 148.424 148.82C148.128 148.41 147.678 148.131 147.074 147.983C146.755 147.937 146.1 147.886 145.109 147.829C144.118 147.772 142.967 147.744 141.657 147.744C140.426 147.983 139.549 148.382 139.025 148.94C138.512 149.51 138.256 150.239 138.256 151.127C138.256 151.526 138.341 151.908 138.512 152.272C138.683 152.637 138.979 152.973 139.401 153.281C139.8 153.577 140.335 153.816 141.007 153.999C141.68 154.192 142.5 154.289 143.468 154.289C145.143 154.289 146.459 153.964 147.416 153.315C148.384 152.677 148.869 151.703 148.869 150.393ZM172.213 148H163.959V146.872C164.221 146.849 164.506 146.826 164.813 146.804C165.132 146.781 165.395 146.735 165.6 146.667C165.919 146.564 166.152 146.388 166.3 146.137C166.46 145.875 166.54 145.539 166.54 145.129V136.464C166.54 135.268 166.255 134.345 165.685 133.696C165.127 133.046 164.443 132.722 163.634 132.722C163.03 132.722 162.478 132.819 161.977 133.012C161.475 133.194 161.031 133.422 160.644 133.696C160.268 133.958 159.966 134.243 159.738 134.55C159.521 134.847 159.362 135.086 159.259 135.268V144.958C159.259 145.345 159.339 145.664 159.499 145.915C159.658 146.166 159.897 146.359 160.216 146.496C160.456 146.61 160.712 146.695 160.985 146.752C161.27 146.809 161.561 146.849 161.857 146.872V148H153.603V146.872C153.865 146.849 154.132 146.826 154.406 146.804C154.691 146.781 154.936 146.735 155.141 146.667C155.46 146.564 155.693 146.388 155.841 146.137C156.001 145.875 156.081 145.539 156.081 145.129V134.721C156.081 134.334 155.995 133.981 155.824 133.662C155.665 133.331 155.437 133.063 155.141 132.858C154.924 132.722 154.668 132.625 154.372 132.568C154.075 132.5 153.756 132.454 153.415 132.431V131.32L159.02 130.944L159.259 131.184V133.559H159.345C159.618 133.286 159.96 132.961 160.37 132.585C160.78 132.198 161.168 131.884 161.532 131.645C161.954 131.372 162.455 131.144 163.036 130.961C163.617 130.779 164.272 130.688 165.001 130.688C166.619 130.688 167.816 131.195 168.59 132.209C169.376 133.212 169.77 134.55 169.77 136.225V144.992C169.77 145.391 169.838 145.716 169.975 145.966C170.111 146.206 170.345 146.394 170.675 146.53C170.949 146.644 171.182 146.724 171.376 146.77C171.581 146.815 171.86 146.849 172.213 146.872V148Z" fill="#171717"/>
<path d="M442 74L595 45L621 193L470 218L442 74Z" fill="white" stroke="#171717" stroke-width="2.2" stroke-linecap="round" stroke-linejoin="round"/>
<path d="M451 55L614 45L622 196L460 206L451 55Z" fill="white" stroke="#171717" stroke-width="2.2" stroke-linecap="round" stroke-linejoin="round"/>
<path d="M473 42L645 56L632 205L460 191L473 42Z" fill="#171717" stroke="#171717" stroke-width="2.2" stroke-linecap="round" stroke-linejoin="round"/>
<path d="M466 35L638 49L625 198L453 184L466 35Z" fill="white" stroke="#171717" stroke-width="2.2" stroke-linecap="round" stroke-linejoin="round"/>
<path d="M480 55L535 60M479 64L515 67" stroke="#171717" stroke-width="1.5" stroke-linecap="round" stroke-linejoin="round"/>
<path d="M478 81L616 92L611 147L473 136L478 81Z" fill="#6DD1FA"/>
<path d="M486 125L519 96L543 121L564 106L598 135M502 103L511 104" stroke="#171717" stroke-width="2.2" stroke-linecap="round" stroke-linejoin="round"/>
<path d="M472 152L534 157M471 162L514 166" stroke="#171717" stroke-width="1.5" stroke-linecap="round" stroke-linejoin="round"/>
<path d="M552 158L609 163L608 178L551 173L552 158Z" fill="#171717" stroke="#171717" stroke-width="2.2" stroke-linecap="round" stroke-linejoin="round"/>
<path d="M705.188 34.7278L719.622 41.6309L657.926 170.637L641.217 187.033L643.492 163.734L705.188 34.7278Z" fill="#6DD1FA" stroke="#171717" stroke-width="2.2" stroke-linecap="round" stroke-linejoin="round"/>
<path d="M705.188 34.7279L708.64 27.5107C710.078 24.5036 712.3 23.7191 715.308 25.1572L720.72 27.7459C723.728 29.184 724.512 31.4067 723.074 34.4138L719.622 41.6309L705.188 34.7279Z" fill="white" stroke="#171717" stroke-width="2.2" stroke-linecap="round" stroke-linejoin="round"/>
<path d="M643.492 163.734L657.926 170.637L641.217 187.033L643.492 163.734Z" fill="white" stroke="#171717" stroke-width="2.2" stroke-linecap="round" stroke-linejoin="round"/>
<path d="M641.217 187.033L641.923 176.285L649.14 179.737L641.217 187.033Z" fill="#171717"/>
<path d="M709.385 44.4944L653.298 161.773" stroke="#171717" stroke-width="1.2" stroke-linecap="round" stroke-linejoin="round"/>
<path d="M774 72L775 58H790L789 73M768 52L798 53L797 62L767 61L768 52Z" fill="#171717"/>
<path d="M774 72L775 58H790L789 73M768 52L798 53L797 62L767 61L768 52Z" stroke="#171717" stroke-width="2.2" stroke-linecap="round" stroke-linejoin="round"/>
<path d="M817 82L826 72L835 80L826 90" fill="white"/>
<path d="M817 82L826 72L835 80L826 90" stroke="#171717" stroke-width="2.2" stroke-linecap="round" stroke-linejoin="round"/>
<path d="M780 181C809.271 181 833 157.271 833 128C833 98.7289 809.271 75 780 75C750.729 75 727 98.7289 727 128C727 157.271 750.729 181 780 181Z" fill="#171717" stroke="#171717" stroke-width="2.2" stroke-linecap="round" stroke-linejoin="round"/>
<path d="M775 177C804.271 177 828 153.271 828 124C828 94.7289 804.271 71 775 71C745.729 71 722 94.7289 722 124C722 153.271 745.729 177 775 177Z" fill="white" stroke="#171717" stroke-width="2.2" stroke-linecap="round" stroke-linejoin="round"/>
<path d="M775 82C782.49 81.9602 789.855 83.9241 796.33 87.6884C802.806 91.4526 808.157 96.8801 811.829 103.408C815.502 109.937 817.361 117.328 817.215 124.817C817.069 132.306 814.924 139.62 811 146L775 124V82Z" fill="#6DD1FA"/>
<path d="M775 85V91M814 124H808M775 163V157M736 124H742M775 124L795 97" stroke="#171717" stroke-width="2.2" stroke-linecap="round" stroke-linejoin="round"/>
<path d="M775 128C777.209 128 779 126.209 779 124C779 121.791 777.209 120 775 120C772.791 120 771 121.791 771 124C771 126.209 772.791 128 775 128Z" fill="#171717" stroke="#171717" stroke-width="2.2" stroke-linecap="round" stroke-linejoin="round"/>
<path d="M408 95L432 93M398 110L430 108M413 125L428 123M726 51L739 49.5M724.5 64L737 70M731 196H826" stroke="#171717" stroke-width="2.2" stroke-linecap="round" stroke-linejoin="round"/>
<path d="M575 214L603 216" stroke="#171717" stroke-width="1.5" stroke-linecap="round" stroke-linejoin="round"/>
</g>
<path d="M960 238V237H0V238V239H960V238Z" fill="#CFC9BC" mask="url(#path-1-inside-1_463_930)"/>
<defs>
<clipPath id="clip0_463_930">
<path d="M0 0H960V238H0V0Z" fill="white"/>
</clipPath>
</defs>
</svg>
