<svg width="960" height="238" viewBox="0 0 960 238" fill="none" xmlns="http://www.w3.org/2000/svg">
<g clip-path="url(#clip0_463_855)">
<mask id="path-1-inside-1_463_855" fill="white">
<path d="M0 0H960V238H0V0Z"/>
</mask>
<path d="M0 0H960V238H0V0Z" fill="white"/>
<path d="M82.7651 95.8745C83.2778 96.4442 83.6538 97.0708 83.8931 97.7544C84.1437 98.4266 84.269 99.2127 84.269 100.113C84.269 102.255 83.4772 104.021 81.8936 105.411C80.3099 106.801 78.3446 107.496 75.9976 107.496C74.9152 107.496 73.8328 107.33 72.7505 107C71.6681 106.658 70.7339 106.248 69.9478 105.77L69.2129 107.017H67.8457L67.6064 98.7114H68.9907C69.2756 99.7368 69.606 100.665 69.9819 101.497C70.3693 102.317 70.8763 103.086 71.5029 103.804C72.0954 104.476 72.7847 105.012 73.5708 105.411C74.3683 105.809 75.2912 106.009 76.3394 106.009C77.1255 106.009 77.8091 105.906 78.3901 105.701C78.9826 105.496 79.4611 105.206 79.8257 104.83C80.1903 104.454 80.458 104.015 80.6289 103.514C80.8112 103.001 80.9023 102.414 80.9023 101.753C80.9023 100.785 80.6289 99.8849 80.082 99.0532C79.5352 98.2101 78.7205 97.5721 77.6382 97.1392C76.8976 96.8429 76.0488 96.5182 75.0918 96.165C74.1348 95.8005 73.3088 95.4587 72.6138 95.1396C71.2466 94.5244 70.1813 93.7212 69.418 92.73C68.666 91.7274 68.29 90.4229 68.29 88.8164C68.29 87.8936 68.478 87.0334 68.854 86.2358C69.23 85.4383 69.7655 84.7262 70.4604 84.0996C71.1213 83.5072 71.9017 83.0457 72.8018 82.7153C73.7018 82.3735 74.6418 82.2026 75.6216 82.2026C76.7381 82.2026 77.735 82.3735 78.6123 82.7153C79.501 83.0571 80.3099 83.4559 81.0391 83.9116L81.7397 82.7495H83.1069L83.2437 90.7988H81.8594C81.6087 89.876 81.3239 88.993 81.0049 88.1499C80.6973 87.3068 80.2928 86.5435 79.7915 85.8599C79.3016 85.1991 78.7035 84.675 77.9971 84.2876C77.2907 83.8888 76.4248 83.6895 75.3994 83.6895C74.3171 83.6895 73.3942 84.0369 72.6309 84.7319C71.8675 85.4269 71.4858 86.2757 71.4858 87.2783C71.4858 88.3265 71.7308 89.1981 72.2207 89.8931C72.7106 90.5767 73.4227 91.1406 74.3569 91.585C75.1886 91.9837 76.0033 92.3312 76.8008 92.6274C77.6097 92.9123 78.3901 93.2199 79.1421 93.5503C79.8257 93.8465 80.4808 94.1826 81.1074 94.5586C81.7454 94.9346 82.298 95.3732 82.7651 95.8745ZM101.854 103.035C101.148 104.38 100.202 105.451 99.0176 106.248C97.8327 107.046 96.4712 107.444 94.9331 107.444C93.5773 107.444 92.3867 107.205 91.3613 106.727C90.3473 106.248 89.5099 105.599 88.8491 104.778C88.1883 103.958 87.6927 103.001 87.3623 101.907C87.0433 100.813 86.8838 99.6571 86.8838 98.438C86.8838 97.3442 87.0547 96.2733 87.3965 95.2251C87.7497 94.1655 88.2624 93.2142 88.9346 92.3711C89.584 91.5622 90.3872 90.9128 91.3442 90.4229C92.3127 89.9215 93.395 89.6709 94.5913 89.6709C95.8218 89.6709 96.8757 89.8646 97.7529 90.252C98.6302 90.6393 99.3423 91.1691 99.8892 91.8413C100.413 92.4793 100.801 93.2313 101.051 94.0972C101.313 94.9631 101.444 95.903 101.444 96.917V98.0449H90.2847C90.2847 99.1501 90.3872 100.153 90.5923 101.053C90.8088 101.953 91.1449 102.745 91.6006 103.428C92.0449 104.089 92.626 104.613 93.3438 105C94.0615 105.376 94.916 105.564 95.9072 105.564C96.9212 105.564 97.7928 105.331 98.522 104.864C99.2625 104.385 99.9746 103.531 100.658 102.3L101.854 103.035ZM98.0776 96.6094C98.0776 95.9714 98.0207 95.2878 97.9067 94.5586C97.8042 93.8294 97.6333 93.2199 97.394 92.73C97.132 92.2059 96.7731 91.7786 96.3174 91.4482C95.8617 91.1178 95.2749 90.9526 94.5571 90.9526C93.3608 90.9526 92.3639 91.4539 91.5664 92.4565C90.7803 93.4478 90.353 94.832 90.2847 96.6094H98.0776ZM116.706 92.3198C116.706 92.9009 116.563 93.4193 116.278 93.875C115.993 94.3193 115.555 94.5415 114.962 94.5415C114.324 94.5415 113.834 94.3763 113.493 94.0459C113.162 93.7155 112.997 93.3509 112.997 92.9521C112.997 92.7015 113.014 92.4736 113.048 92.2686C113.094 92.0635 113.134 91.8584 113.168 91.6533C112.632 91.6533 112.006 91.8698 111.288 92.3027C110.57 92.7357 109.961 93.3509 109.459 94.1484V103.958C109.459 104.357 109.534 104.681 109.682 104.932C109.841 105.183 110.086 105.371 110.417 105.496C110.701 105.61 111.066 105.695 111.51 105.752C111.966 105.809 112.359 105.849 112.689 105.872V107H103.803V105.872C104.065 105.849 104.333 105.826 104.606 105.804C104.891 105.781 105.136 105.735 105.341 105.667C105.66 105.564 105.893 105.388 106.042 105.137C106.201 104.875 106.281 104.539 106.281 104.129V93.7212C106.281 93.368 106.195 93.0205 106.024 92.6787C105.865 92.3369 105.637 92.0635 105.341 91.8584C105.124 91.7217 104.868 91.6248 104.572 91.5679C104.276 91.4995 103.957 91.4539 103.615 91.4312V90.3203L109.22 89.9443L109.459 90.1836V92.5591H109.545C110.251 91.6362 111.037 90.9355 111.903 90.457C112.769 89.9785 113.561 89.7393 114.279 89.7393C114.997 89.7393 115.578 89.9728 116.022 90.4399C116.478 90.9071 116.706 91.5337 116.706 92.3198ZM134.804 91.1919C134.291 91.283 133.801 91.471 133.334 91.7559C132.878 92.0293 132.485 92.5192 132.155 93.2256C131.483 94.7523 130.788 96.3473 130.07 98.0107C129.352 99.6628 128.606 101.4 127.831 103.223C127.603 103.747 127.358 104.368 127.096 105.086C126.846 105.804 126.612 106.493 126.396 107.154H125.062C123.98 104.476 122.983 102.038 122.072 99.8394C121.16 97.6291 120.215 95.3675 119.235 93.0547C119.007 92.5306 118.637 92.1261 118.124 91.8413C117.623 91.5451 117.116 91.3571 116.603 91.2773V90.1494H124.396V91.3457C124.054 91.3571 123.627 91.4312 123.114 91.5679C122.602 91.6932 122.345 91.8698 122.345 92.0977C122.345 92.1318 122.374 92.223 122.431 92.3711C122.488 92.5078 122.545 92.6673 122.602 92.8496C123.069 94.0117 123.729 95.6353 124.584 97.7202C125.438 99.8052 126.133 101.486 126.669 102.762C127.079 101.782 127.592 100.563 128.207 99.1045C128.834 97.6462 129.506 96.0169 130.224 94.2168C130.338 93.9092 130.446 93.6243 130.548 93.3623C130.651 93.0889 130.702 92.8154 130.702 92.542C130.702 92.3483 130.605 92.1774 130.412 92.0293C130.229 91.8698 130.007 91.7331 129.745 91.6191C129.483 91.5052 129.227 91.4198 128.976 91.3628C128.725 91.3058 128.52 91.266 128.361 91.2432V90.1494H134.804V91.1919ZM143.742 107H135.59V105.872C135.852 105.849 136.12 105.826 136.393 105.804C136.678 105.781 136.923 105.735 137.128 105.667C137.447 105.564 137.681 105.388 137.829 105.137C137.988 104.875 138.068 104.539 138.068 104.129V93.7212C138.068 93.3566 137.982 93.0262 137.812 92.73C137.652 92.4224 137.424 92.166 137.128 91.9609C136.911 91.8242 136.598 91.7103 136.188 91.6191C135.778 91.5166 135.402 91.4539 135.06 91.4312V90.3203L141.007 89.9443L141.247 90.1836V103.924C141.247 104.323 141.321 104.653 141.469 104.915C141.628 105.177 141.873 105.371 142.204 105.496C142.454 105.599 142.699 105.684 142.938 105.752C143.178 105.809 143.445 105.849 143.742 105.872V107ZM141.588 83.2964C141.588 83.9458 141.372 84.5155 140.939 85.0054C140.517 85.4839 139.993 85.7231 139.367 85.7231C138.786 85.7231 138.279 85.4953 137.846 85.0396C137.424 84.5724 137.213 84.0426 137.213 83.4502C137.213 82.8236 137.424 82.2767 137.846 81.8096C138.279 81.3424 138.786 81.1089 139.367 81.1089C140.016 81.1089 140.546 81.3311 140.956 81.7754C141.378 82.2083 141.588 82.7153 141.588 83.2964ZM153.603 107.444C151.164 107.444 149.256 106.635 147.877 105.018C146.499 103.4 145.81 101.229 145.81 98.5063C145.81 97.3215 145.992 96.2163 146.356 95.1909C146.732 94.1541 147.274 93.2142 147.98 92.3711C148.652 91.5622 149.495 90.9128 150.509 90.4229C151.523 89.9215 152.628 89.6709 153.825 89.6709C155.477 89.6709 156.821 90.0697 157.858 90.8672C158.895 91.6533 159.413 92.73 159.413 94.0972C159.413 94.6668 159.276 95.1738 159.003 95.6182C158.729 96.0511 158.279 96.2676 157.653 96.2676C156.981 96.2676 156.457 96.0967 156.081 95.7549C155.716 95.4131 155.534 95.0314 155.534 94.6099C155.534 94.0972 155.602 93.5731 155.739 93.0376C155.875 92.4907 155.955 92.092 155.978 91.8413C155.773 91.4881 155.465 91.2546 155.055 91.1406C154.656 91.0153 154.223 90.9526 153.756 90.9526C153.209 90.9526 152.685 91.0723 152.184 91.3115C151.694 91.5394 151.216 91.9666 150.749 92.5933C150.327 93.1629 149.985 93.932 149.723 94.9004C149.461 95.8688 149.33 97.0252 149.33 98.3696C149.33 100.489 149.797 102.221 150.731 103.565C151.677 104.898 152.913 105.564 154.44 105.564C155.545 105.564 156.468 105.297 157.208 104.761C157.96 104.226 158.655 103.423 159.293 102.352L160.387 103.069C159.635 104.414 158.644 105.479 157.414 106.265C156.183 107.051 154.913 107.444 153.603 107.444ZM176.674 103.035C175.967 104.38 175.022 105.451 173.837 106.248C172.652 107.046 171.291 107.444 169.752 107.444C168.397 107.444 167.206 107.205 166.181 106.727C165.167 106.248 164.329 105.599 163.668 104.778C163.008 103.958 162.512 103.001 162.182 101.907C161.863 100.813 161.703 99.6571 161.703 98.438C161.703 97.3442 161.874 96.2733 162.216 95.2251C162.569 94.1655 163.082 93.2142 163.754 92.3711C164.403 91.5622 165.207 90.9128 166.164 90.4229C167.132 89.9215 168.214 89.6709 169.411 89.6709C170.641 89.6709 171.695 89.8646 172.572 90.252C173.45 90.6393 174.162 91.1691 174.708 91.8413C175.233 92.4793 175.62 93.2313 175.871 94.0972C176.133 94.9631 176.264 95.903 176.264 96.917V98.0449H165.104C165.104 99.1501 165.207 100.153 165.412 101.053C165.628 101.953 165.964 102.745 166.42 103.428C166.864 104.089 167.445 104.613 168.163 105C168.881 105.376 169.735 105.564 170.727 105.564C171.741 105.564 172.612 105.331 173.341 104.864C174.082 104.385 174.794 103.531 175.478 102.3L176.674 103.035ZM172.897 96.6094C172.897 95.9714 172.84 95.2878 172.726 94.5586C172.624 93.8294 172.453 93.2199 172.213 92.73C171.951 92.2059 171.592 91.7786 171.137 91.4482C170.681 91.1178 170.094 90.9526 169.376 90.9526C168.18 90.9526 167.183 91.4539 166.386 92.4565C165.6 93.4478 165.172 94.832 165.104 96.6094H172.897Z" fill="#171717"/>
<path d="M90.8999 136.02C90.8999 138.082 90.5125 139.871 89.7378 141.386C88.9631 142.902 87.9548 144.143 86.7129 145.112C85.4596 146.08 84.0526 146.804 82.4917 147.282C80.9308 147.761 79.3187 148 77.6553 148H67.6064V146.787C67.9368 146.787 68.3641 146.758 68.8882 146.701C69.4237 146.633 69.7769 146.559 69.9478 146.479C70.2896 146.331 70.5345 146.114 70.6826 145.83C70.8421 145.533 70.9219 145.18 70.9219 144.77V127.27C70.9219 126.883 70.8535 126.535 70.7168 126.228C70.5915 125.92 70.3351 125.675 69.9478 125.493C69.5946 125.322 69.2129 125.196 68.8027 125.117C68.3926 125.037 68.0394 124.986 67.7432 124.963V123.75H78.3389C79.7972 123.75 81.2327 123.977 82.6455 124.433C84.0583 124.877 85.2887 125.481 86.3369 126.245C87.7611 127.259 88.8776 128.586 89.6865 130.227C90.4954 131.867 90.8999 133.798 90.8999 136.02ZM86.7129 136.003C86.7129 134.374 86.4964 132.904 86.0635 131.594C85.6305 130.272 84.9982 129.121 84.1665 128.142C83.3804 127.207 82.4119 126.472 81.2612 125.937C80.1219 125.402 78.8516 125.134 77.4502 125.134C76.9831 125.134 76.4533 125.145 75.8608 125.168C75.2798 125.179 74.8468 125.191 74.562 125.202V143.847C74.562 144.884 74.8639 145.602 75.4678 146C76.0716 146.399 77.0002 146.599 78.2534 146.599C79.7004 146.599 80.965 146.342 82.0474 145.83C83.1297 145.317 84.007 144.605 84.6792 143.693C85.3856 142.736 85.8983 141.631 86.2173 140.378C86.5477 139.113 86.7129 137.655 86.7129 136.003ZM108.417 144.035C107.711 145.38 106.765 146.451 105.58 147.248C104.395 148.046 103.034 148.444 101.496 148.444C100.14 148.444 98.9492 148.205 97.9238 147.727C96.9098 147.248 96.0724 146.599 95.4116 145.778C94.7508 144.958 94.2552 144.001 93.9248 142.907C93.6058 141.813 93.4463 140.657 93.4463 139.438C93.4463 138.344 93.6172 137.273 93.959 136.225C94.3122 135.166 94.8249 134.214 95.4971 133.371C96.1465 132.562 96.9497 131.913 97.9067 131.423C98.8752 130.922 99.9575 130.671 101.154 130.671C102.384 130.671 103.438 130.865 104.315 131.252C105.193 131.639 105.905 132.169 106.452 132.841C106.976 133.479 107.363 134.231 107.614 135.097C107.876 135.963 108.007 136.903 108.007 137.917V139.045H96.8472C96.8472 140.15 96.9497 141.153 97.1548 142.053C97.3713 142.953 97.7074 143.745 98.1631 144.428C98.6074 145.089 99.1885 145.613 99.9062 146C100.624 146.376 101.479 146.564 102.47 146.564C103.484 146.564 104.355 146.331 105.084 145.864C105.825 145.385 106.537 144.531 107.221 143.3L108.417 144.035ZM104.64 137.609C104.64 136.971 104.583 136.288 104.469 135.559C104.367 134.829 104.196 134.22 103.957 133.73C103.694 133.206 103.336 132.779 102.88 132.448C102.424 132.118 101.837 131.953 101.12 131.953C99.9233 131.953 98.9264 132.454 98.1289 133.457C97.3428 134.448 96.9155 135.832 96.8472 137.609H104.64ZM121.491 139.746C121.958 140.156 122.317 140.629 122.567 141.164C122.818 141.7 122.943 142.355 122.943 143.129C122.943 144.69 122.357 145.966 121.183 146.958C120.021 147.949 118.511 148.444 116.654 148.444C115.674 148.444 114.769 148.268 113.937 147.915C113.117 147.561 112.53 147.237 112.177 146.94L111.835 148.051H110.553L110.382 142.189H111.562C111.653 142.634 111.846 143.152 112.143 143.745C112.439 144.337 112.798 144.873 113.219 145.351C113.664 145.852 114.193 146.274 114.809 146.616C115.435 146.958 116.136 147.128 116.911 147.128C118.004 147.128 118.847 146.883 119.44 146.394C120.032 145.892 120.329 145.18 120.329 144.257C120.329 143.779 120.232 143.369 120.038 143.027C119.856 142.674 119.582 142.366 119.218 142.104C118.842 141.842 118.38 141.608 117.833 141.403C117.287 141.187 116.677 140.976 116.005 140.771C115.469 140.611 114.871 140.395 114.21 140.122C113.561 139.837 113.003 139.506 112.536 139.13C112.034 138.732 111.624 138.242 111.305 137.661C110.986 137.08 110.827 136.396 110.827 135.61C110.827 134.231 111.339 133.063 112.365 132.106C113.39 131.149 114.763 130.671 116.483 130.671C117.144 130.671 117.816 130.756 118.5 130.927C119.195 131.098 119.759 131.303 120.192 131.542L120.585 130.654H121.815L122.072 136.071H120.893C120.653 134.864 120.135 133.884 119.337 133.132C118.551 132.368 117.589 131.987 116.449 131.987C115.515 131.987 114.78 132.22 114.245 132.688C113.709 133.155 113.441 133.719 113.441 134.379C113.441 134.892 113.527 135.319 113.698 135.661C113.88 136.003 114.148 136.293 114.501 136.533C114.843 136.761 115.27 136.977 115.783 137.182C116.307 137.376 116.951 137.598 117.714 137.849C118.466 138.088 119.172 138.367 119.833 138.686C120.505 139.005 121.058 139.358 121.491 139.746ZM133.693 148H125.541V146.872C125.803 146.849 126.071 146.826 126.344 146.804C126.629 146.781 126.874 146.735 127.079 146.667C127.398 146.564 127.632 146.388 127.78 146.137C127.939 145.875 128.019 145.539 128.019 145.129V134.721C128.019 134.357 127.934 134.026 127.763 133.73C127.603 133.422 127.375 133.166 127.079 132.961C126.863 132.824 126.549 132.71 126.139 132.619C125.729 132.517 125.353 132.454 125.011 132.431V131.32L130.958 130.944L131.198 131.184V144.924C131.198 145.323 131.272 145.653 131.42 145.915C131.579 146.177 131.824 146.371 132.155 146.496C132.405 146.599 132.65 146.684 132.89 146.752C133.129 146.809 133.397 146.849 133.693 146.872V148ZM131.54 124.296C131.54 124.946 131.323 125.515 130.89 126.005C130.469 126.484 129.944 126.723 129.318 126.723C128.737 126.723 128.23 126.495 127.797 126.04C127.375 125.572 127.165 125.043 127.165 124.45C127.165 123.824 127.375 123.277 127.797 122.81C128.23 122.342 128.737 122.109 129.318 122.109C129.967 122.109 130.497 122.331 130.907 122.775C131.329 123.208 131.54 123.715 131.54 124.296ZM150.202 146.257C150.657 146.69 151.016 147.18 151.278 147.727C151.54 148.273 151.671 148.951 151.671 149.76C151.671 150.569 151.495 151.327 151.142 152.033C150.788 152.751 150.253 153.372 149.535 153.896C148.772 154.431 147.86 154.847 146.801 155.144C145.741 155.44 144.431 155.588 142.87 155.588C140.318 155.588 138.41 155.212 137.145 154.46C135.88 153.719 135.248 152.631 135.248 151.196C135.248 150.034 135.704 149.117 136.615 148.444C137.527 147.772 138.689 147.408 140.102 147.351V147.111C139.76 147.009 139.407 146.883 139.042 146.735C138.677 146.576 138.364 146.394 138.102 146.188C137.806 145.949 137.567 145.67 137.384 145.351C137.202 145.021 137.111 144.616 137.111 144.138C137.111 143.534 137.322 142.981 137.743 142.48C138.176 141.967 138.826 141.529 139.691 141.164V140.908C138.598 140.395 137.749 139.74 137.145 138.942C136.541 138.133 136.239 137.199 136.239 136.14C136.239 134.545 136.832 133.234 138.017 132.209C139.213 131.184 140.74 130.671 142.597 130.671C143.109 130.671 143.616 130.722 144.118 130.825C144.63 130.927 145.149 131.058 145.673 131.218H151.552V132.858H147.587V132.961C148.008 133.451 148.322 133.992 148.527 134.584C148.732 135.177 148.834 135.758 148.834 136.328C148.834 137.809 148.231 139.062 147.023 140.087C145.827 141.113 144.431 141.625 142.836 141.625H140.768C140.506 141.717 140.233 141.882 139.948 142.121C139.663 142.36 139.521 142.685 139.521 143.095C139.521 143.517 139.64 143.841 139.879 144.069C140.119 144.286 140.409 144.434 140.751 144.514C141.081 144.605 141.463 144.662 141.896 144.685C142.34 144.707 142.796 144.724 143.263 144.736C143.764 144.747 144.448 144.781 145.314 144.838C146.191 144.895 146.812 144.93 147.177 144.941C147.701 144.964 148.225 145.089 148.749 145.317C149.285 145.545 149.769 145.858 150.202 146.257ZM145.587 136.259C145.587 134.926 145.314 133.867 144.767 133.081C144.232 132.283 143.474 131.884 142.494 131.884C141.959 131.884 141.497 131.998 141.11 132.226C140.734 132.443 140.426 132.756 140.187 133.166C139.959 133.542 139.794 133.998 139.691 134.533C139.6 135.057 139.555 135.598 139.555 136.157C139.555 137.421 139.828 138.452 140.375 139.25C140.933 140.048 141.651 140.446 142.528 140.446C143.508 140.446 144.26 140.053 144.784 139.267C145.32 138.47 145.587 137.467 145.587 136.259ZM148.869 150.393C148.869 149.755 148.721 149.23 148.424 148.82C148.128 148.41 147.678 148.131 147.074 147.983C146.755 147.937 146.1 147.886 145.109 147.829C144.118 147.772 142.967 147.744 141.657 147.744C140.426 147.983 139.549 148.382 139.025 148.94C138.512 149.51 138.256 150.239 138.256 151.127C138.256 151.526 138.341 151.908 138.512 152.272C138.683 152.637 138.979 152.973 139.401 153.281C139.8 153.577 140.335 153.816 141.007 153.999C141.68 154.192 142.5 154.289 143.468 154.289C145.143 154.289 146.459 153.964 147.416 153.315C148.384 152.677 148.869 151.703 148.869 150.393ZM172.213 148H163.959V146.872C164.221 146.849 164.506 146.826 164.813 146.804C165.132 146.781 165.395 146.735 165.6 146.667C165.919 146.564 166.152 146.388 166.3 146.137C166.46 145.875 166.54 145.539 166.54 145.129V136.464C166.54 135.268 166.255 134.345 165.685 133.696C165.127 133.046 164.443 132.722 163.634 132.722C163.03 132.722 162.478 132.819 161.977 133.012C161.475 133.194 161.031 133.422 160.644 133.696C160.268 133.958 159.966 134.243 159.738 134.55C159.521 134.847 159.362 135.086 159.259 135.268V144.958C159.259 145.345 159.339 145.664 159.499 145.915C159.658 146.166 159.897 146.359 160.216 146.496C160.456 146.61 160.712 146.695 160.985 146.752C161.27 146.809 161.561 146.849 161.857 146.872V148H153.603V146.872C153.865 146.849 154.132 146.826 154.406 146.804C154.691 146.781 154.936 146.735 155.141 146.667C155.46 146.564 155.693 146.388 155.841 146.137C156.001 145.875 156.081 145.539 156.081 145.129V134.721C156.081 134.334 155.995 133.981 155.824 133.662C155.665 133.331 155.437 133.063 155.141 132.858C154.924 132.722 154.668 132.625 154.372 132.568C154.075 132.5 153.756 132.454 153.415 132.431V131.32L159.02 130.944L159.259 131.184V133.559H159.345C159.618 133.286 159.96 132.961 160.37 132.585C160.78 132.198 161.168 131.884 161.532 131.645C161.954 131.372 162.455 131.144 163.036 130.961C163.617 130.779 164.272 130.688 165.001 130.688C166.619 130.688 167.816 131.195 168.59 132.209C169.376 133.212 169.77 134.55 169.77 136.225V144.992C169.77 145.391 169.838 145.716 169.975 145.966C170.111 146.206 170.345 146.394 170.675 146.53C170.949 146.644 171.182 146.724 171.376 146.77C171.581 146.815 171.86 146.849 172.213 146.872V148Z" fill="#171717"/>
<path d="M429 166C375 216 543 232 574 188C598 154 536 125 562 96C586 68 651 72 670 105C693 146 643 179 680 198C717 218 774 195 794 173" stroke="#6DD1FA" stroke-width="15" stroke-linecap="round"/>
<path d="M402 164C402 141 406 115 425 108L448 106C467 114 470 135 478 148L503 139L507 151C493 164 480 172 470 165L456 146L455 179L402 178V164Z" fill="white" stroke="#171717" stroke-width="2.2" stroke-linecap="round" stroke-linejoin="round"/>
<path d="M419 123L414 161M454 122L456 146M407 174L449 178" stroke="#171717" stroke-width="2.2" stroke-linecap="round" stroke-linejoin="round"/>
<path d="M421 108L427 92L443 93L447 107L436 120L421 108Z" fill="white" stroke="#171717" stroke-width="2.2" stroke-linecap="round" stroke-linejoin="round"/>
<path d="M419 71C415 80 418 101 431 103C444 104 451 89 448 75L440 62L419 71Z" fill="white" stroke="#171717" stroke-width="2.2" stroke-linecap="round" stroke-linejoin="round"/>
<path d="M418 86C406 78 411 56 426 55C436 47 453 54 453 66C453 74 447 79 442 79L440 68C434 75 428 75 420 75L418 86Z" fill="#171717" stroke="#171717" stroke-width="2.2" stroke-linecap="round" stroke-linejoin="round"/>
<path d="M442 84L445 89L441 91M432 95L434.5 96L437.5 95" stroke="#171717" stroke-width="1.3" stroke-linecap="round" stroke-linejoin="round"/>
<path d="M435 83.3C435.718 83.3 436.3 82.718 436.3 82C436.3 81.282 435.718 80.7 435 80.7C434.282 80.7 433.7 81.282 433.7 82C433.7 82.718 434.282 83.3 435 83.3Z" fill="#171717"/>
<path d="M503 139L511 131C515 127 518 130 516 134L513 139L523 137C530 137 530 142 525 145L507 151" fill="white"/>
<path d="M503 139L511 131C515 127 518 130 516 134L513 139L523 137C530 137 530 142 525 145L507 151" stroke="#171717" stroke-width="2.2" stroke-linecap="round" stroke-linejoin="round"/>
<path d="M401 178L456 179L454 195L399 192L401 178Z" fill="#171717" stroke="#171717" stroke-width="2.2" stroke-linecap="round" stroke-linejoin="round"/>
<path d="M650.644 40.3805L600.141 33.2827C595.218 32.5909 590.667 36.0204 589.976 40.9426L575.919 140.96C575.227 145.882 578.657 150.433 583.579 151.125L634.083 158.222C639.005 158.914 643.556 155.485 644.248 150.563L658.304 50.5455C658.996 45.6233 655.567 41.0723 650.644 40.3805Z" fill="#171717" stroke="#171717" stroke-width="2.2" stroke-linecap="round" stroke-linejoin="round"/>
<path d="M646.25 35.7236L595.746 28.6258C590.824 27.934 586.273 31.3634 585.581 36.2856L571.524 136.303C570.833 141.225 574.262 145.776 579.184 146.468L629.688 153.565C634.61 154.257 639.161 150.828 639.853 145.906L653.909 45.8886C654.601 40.9664 651.172 36.4154 646.25 35.7236Z" fill="white" stroke="#171717" stroke-width="2.2" stroke-linecap="round" stroke-linejoin="round"/>
<path d="M608.496 38.4963L630.282 41.5581" stroke="#171717" stroke-width="3" stroke-linecap="round" stroke-linejoin="round"/>
<path d="M593.396 52.5314L641.919 59.3509L635.239 106.884L586.716 100.064L593.396 52.5314Z" fill="#6DD1FA"/>
<path d="M601.939 77.9679L609.599 88.1328L629.078 71.6837" stroke="#171717" stroke-width="3" stroke-linecap="round" stroke-linejoin="round"/>
<path d="M587.026 112.226L628.617 118.071M585.913 120.148L612.65 123.906" stroke="#171717" stroke-width="1.5" stroke-linecap="round" stroke-linejoin="round"/>
<path d="M601.372 139.488L611.274 140.879" stroke="#171717" stroke-width="2.2" stroke-linecap="round" stroke-linejoin="round"/>
<path d="M757 133C755 116 761 95 776 90L794 91C809 100 813 114 812 134" fill="white"/>
<path d="M757 133C755 116 761 95 776 90L794 91C809 100 813 114 812 134" stroke="#171717" stroke-width="2.2" stroke-linecap="round" stroke-linejoin="round"/>
<path d="M776 91L782 104L794 91M781 105L780 129" stroke="#171717" stroke-width="2.2" stroke-linecap="round" stroke-linejoin="round"/>
<path d="M772.281 58C768.161 75.1429 774.34 88.8571 785.67 90C796.999 88.8571 802.149 74 796.999 59.1429L772.281 58Z" fill="white" stroke="#171717" stroke-width="2.2" stroke-linecap="round" stroke-linejoin="round"/>
<path d="M771.261 70.0174C764.905 64.1216 768.083 50.3649 778.676 48.3997C792.446 43.4866 801.979 52.3302 800.92 62.1564L797.742 71L792.446 59.2085C786.09 66.0869 779.735 67.0695 771.261 64.1216V70.0174Z" fill="#171717" stroke="#171717" stroke-width="2.2" stroke-linecap="round" stroke-linejoin="round"/>
<path d="M781 71L779 77L783 78M785.5 82.5L788 83.5L790 82" stroke="#171717" stroke-width="1.3" stroke-linecap="round" stroke-linejoin="round"/>
<path d="M789 72.2C789.663 72.2 790.2 71.6628 790.2 71C790.2 70.3373 789.663 69.8 789 69.8C788.337 69.8 787.8 70.3373 787.8 71C787.8 71.6628 788.337 72.2 789 72.2Z" fill="#171717"/>
<path d="M725 129H860V186H725V129Z" fill="white" stroke="#171717" stroke-width="2.2" stroke-linecap="round" stroke-linejoin="round"/>
<path d="M720 127H865V136H720V127Z" fill="#171717" stroke="#171717" stroke-width="2.2" stroke-linecap="round" stroke-linejoin="round"/>
<path d="M735 146H849V175H735V146Z" fill="#6DD1FA"/>
<path d="M764 125L774 121L789 122C794 124 793 128 789 128H764V125Z" fill="white" stroke="#171717" stroke-width="2.2" stroke-linecap="round" stroke-linejoin="round"/>
<path d="M820 124V106H843V124" fill="white"/>
<path d="M820 124V106H843V124" stroke="#171717" stroke-width="2.2" stroke-linecap="round" stroke-linejoin="round"/>
<path d="M831 106L832 124" stroke="#171717" stroke-width="2.2" stroke-linecap="round" stroke-linejoin="round"/>
<path d="M740 187L737 199M848 187L851 199" stroke="#171717" stroke-width="2.2" stroke-linecap="round" stroke-linejoin="round"/>
<path d="M492 72C506 58 529 56 546 60M539 53L548 61L537 67" stroke="#171717" stroke-width="2.2" stroke-linecap="round" stroke-linejoin="round"/>
<path d="M672 52C690 42 714 45 725 57M724 47L727 59L715 58" stroke="#171717" stroke-width="2.2" stroke-linecap="round" stroke-linejoin="round"/>
<path d="M855 74L865 68M849 65L853 54" stroke="#171717" stroke-width="2.2" stroke-linecap="round" stroke-linejoin="round"/>
</g>
<path d="M960 238V237H0V238V239H960V238Z" fill="#CFC9BC" mask="url(#path-1-inside-1_463_855)"/>
<defs>
<clipPath id="clip0_463_855">
<path d="M0 0H960V238H0V0Z" fill="white"/>
</clipPath>
</defs>
</svg>
